<?xml version="1.0" encoding="utf-8"?>
<!-- Generator: Adobe Illustrator 24.0.0, SVG Export Plug-In . SVG Version: 6.00 Build 0)  -->
<svg version="1.1" id="圖層_1" xmlns="http://www.w3.org/2000/svg" xmlns:xlink="http://www.w3.org/1999/xlink" x="0px" y="0px"
	 viewBox="0 0 576 512" style="enable-background:new 0 0 576 512;" xml:space="preserve">
<style type="text/css">
	.st0{fill:#FFFFFF;}
</style>
<rect x="35" y="54.3" width="505" height="396"/>
<path class="st0" d="M512,80c8.8,0,16,7.2,16,16v320c0,8.8-7.2,16-16,16H64c-8.8,0-16-7.2-16-16V96c0-8.8,7.2-16,16-16H512z M64,32
	C28.7,32,0,60.7,0,96v320c0,35.3,28.7,64,64,64h448c35.3,0,64-28.7,64-64V96c0-35.3-28.7-64-64-64H64z M208,256
	c35.3,0,64-28.7,64-64s-28.7-64-64-64s-64,28.7-64,64S172.7,256,208,256z M176,288c-44.2,0-80,35.8-80,80c0,8.8,7.2,16,16,16h192
	c8.8,0,16-7.2,16-16c0-44.2-35.8-80-80-80H176z M376,144c-13.3,0-24,10.7-24,24s10.7,24,24,24h80c13.3,0,24-10.7,24-24
	s-10.7-24-24-24H376z M376,240c-13.3,0-24,10.7-24,24c0,13.3,10.7,24,24,24h80c13.3,0,24-10.7,24-24s-10.7-24-24-24H376z"/>
</svg>
